<?xml version="1.0" encoding="UTF-8"?>
<!DOCTYPE svg PUBLIC "-//W3C//DTD SVG 1.1//EN" "http://www.w3.org/Graphics/SVG/1.1/DTD/svg11.dtd">
<!-- Creator: CorelDRAW 2021 (64 Bit) -->
<svg xmlns="http://www.w3.org/2000/svg" xml:space="preserve" width="113.171mm" height="106.658mm" version="1.1" style="shape-rendering:geometricPrecision; text-rendering:geometricPrecision; image-rendering:optimizeQuality; fill-rule:evenodd; clip-rule:evenodd"
viewBox="0 0 11317.06 10665.76"
 xmlns:xlink="http://www.w3.org/1999/xlink"
 xmlns:xodm="http://www.corel.com/coreldraw/odm/2003">
 <defs>
  <style type="text/css">
   <![CDATA[
    .fil1 {fill:#5A099D}
    .fil2 {fill:white}
    .fil3 {fill:#5A099D;fill-rule:nonzero}
    .fil0 {fill:white;fill-rule:nonzero}
   ]]>
  </style>
 </defs>
 <g id="Camada_x0020_1">
  <metadata id="CorelCorpID_0Corel-Layer"/>
  <path class="fil0" d="M-5.65 7391.6l0 1888.31 716.1 0c383.73,2.67 743.12,-186.7 743.12,-621.43l0 -634.77c0,-440.08 -359.39,-632.11 -743.12,-632.11l-716.1 0zm486.41 1440.24l0 -994.83 245.9 0c162.14,0 240.5,77.34 240.5,200.03l0 589.43c0,122.69 -75.66,205.37 -240.5,205.37l-245.9 0zm1573.81 -992.16l843.11 0 0 -448.08 -1332.22 0 0 1888.31 1332.22 0 0 -450.74 -843.11 0 0 -282.71 775.55 0 0 -413.4 -775.55 0 0 -293.38zm860.41 1125.51c178.34,226.71 421.55,341.39 651.25,341.39 351.29,0 740.41,-200.03 756.64,-565.42 21.61,-464.08 -318.88,-581.43 -659.37,-642.78 -148.62,-32 -248.6,-85.34 -254,-176.02 8.1,-218.71 351.29,-226.71 551.25,-16.01l316.17 -240.04c-197.26,-237.37 -421.55,-301.38 -653.95,-301.38 -351.3,0 -691.78,194.7 -691.78,565.43 0,360.06 281.04,552.09 589.1,600.09 156.73,21.34 332.37,82.69 326.97,189.37 -13.51,202.7 -435.07,192.03 -626.93,-37.34l-305.35 282.71zm1952.12 -1573.59l-483.71 0 0 1888.31 483.71 0 0 -1888.31zm1530.58 376.06c-132.42,-301.38 -416.15,-402.73 -664.77,-402.73 -378.31,0 -756.63,213.37 -756.63,640.11l0 648.1c0,434.74 378.32,653.44 756.63,653.44 383.73,0 751.24,-218.7 751.24,-653.44l0 -469.41 -770.14 0 0 400.07 305.35 0 0 69.34c0,293.38 -559.37,296.05 -559.37,0l0 -648.1c0,-248.04 426.96,-306.72 532.35,-53.35l405.34 -184.03zm163.22 1512.25l483.71 0 0 -754.79 -62.15 -365.39 13.5 -2.67 167.54 378.73 432.37 744.12 489.11 0 0 -1888.31 -481 0 0 856.14c2.7,0 51.34,325.39 54.04,325.39l-13.51 2.67 -162.13 -378.73 -462.1 -805.47 -459.38 0 0 1888.31zm2168.31 -1440.23l843.11 0 0 -448.08 -1332.22 0 0 1888.31 1332.22 0 0 -450.74 -843.11 0 0 -282.71 775.55 0 0 -413.4 -775.55 0 0 -293.38zm1971.04 1440.23l602.61 0 -521.54 -648.11c232.4,-72.01 375.61,-269.37 375.61,-618.76 -10.8,-442.74 -316.17,-621.44 -710.69,-621.44l-764.75 0 0 1888.31 489.11 0 0 -600.1 86.48 0 443.17 600.1zm-529.65 -1010.83l0 -432.07 283.74 0c305.36,0 305.36,432.07 0,432.07l-283.74 0z"/>
  <path class="fil1" d="M3913.72 1.11c1408.21,0 2642.75,742.81 3333.75,1857.86l0 4123.08c-229.73,370.69 -519.61,700.18 -855.89,974.99l-235.06 0 0 -6073.07 -1222.1 0 -1024.1 2967.91 -1017.27 -2967.91 -1222.1 0 0 6073.07 -235.26 0c-879.66,-718.72 -1441.36,-1811.99 -1441.36,-3036.53 0,-2164.62 1754.78,-3919.4 3919.39,-3919.4zm-1020.67 6955.93l0 -1749.87 -81.92 -1226.62 34.13 -8.57 648.6 2084.38 839.77 0 634.92 -2084.38 40.97 8.57 -75.1 1226.62 -6.83 1749.87 -2034.54 0z"/>
  <path class="fil2" d="M8476.4 3131.34l0 -2247.37 -1228.93 0 0 975c371.17,598.92 585.65,1305.13 585.65,2061.54 0,756.39 -214.48,1462.6 -585.65,2061.54l0 974.99 1228.93 0 0 -2101.57 40.96 -68.61 1235.74 2170.18 1549.82 0 -1904.83 -3139.46 1911.64 -2933.61 -1522.48 0 -1310.85 2247.37z"/>
  <path class="fil3" d="M6826.74 9914.39c-64.75,-147.37 -203.48,-196.93 -325.06,-196.93 -184.98,0 -369.97,104.33 -369.97,313l0 316.9c0,212.58 184.99,319.52 369.97,319.52 187.64,0 367.35,-106.94 367.35,-319.52l0 -229.53 -376.6 0 0 195.63 149.32 0 0 33.9c0,143.46 -273.52,144.77 -273.52,0l0 -316.9c0,-121.29 208.78,-149.98 260.31,-26.09l198.2 -89.98zm650.11 739.45l294.65 0 -255.02 -316.91c113.64,-35.21 183.68,-131.72 183.68,-302.56 -5.29,-216.49 -154.61,-303.87 -347.52,-303.87l-373.95 0 0 923.34 239.17 0 0 -293.43 42.29 0 216.7 293.43zm-258.99 -494.27l0 -211.28 138.74 0c149.32,0 149.32,211.28 0,211.28l-138.74 0zm1210.35 -708.16l-245.77 0 -132.13 216.49 204.81 0 173.09 -216.49zm-136.09 279.09l-215.38 0 -326.37 923.34 253.69 0 58.14 -185.19 249.74 0 60.78 185.19 253.7 0 -334.3 -923.34zm-177.06 530.79l68.71 -269.96 6.61 0 64.74 269.96 -140.06 0zm812.63 -309.08l412.26 0 0 -221.71 -651.43 0 0 923.34 239.17 0 0 -318.21 360.73 0 0 -217.8 -360.73 0 0 -165.62zm713.52 -221.71l-236.51 0 0 923.34 236.51 0 0 -923.34zm625.01 635.12c-51.53,127.81 -262.95,96.51 -262.95,-14.34l0 -318.22c0,-114.76 208.77,-140.84 272.2,-26.08l192.92 -76.94c-75.32,-164.33 -214.06,-212.58 -329.02,-212.58 -187.63,0 -372.62,106.94 -372.62,315.6l0 318.22c0,209.97 184.99,315.6 368.66,315.6 117.6,0 258.98,-57.38 336.94,-207.36l-206.13 -93.9zm269.56 -15.65c0,211.28 194.24,316.91 388.48,316.91 194.23,0 387.16,-105.63 387.16,-316.91l0 -315.6c0,-211.27 -194.24,-316.91 -388.48,-316.91 -194.24,0 -387.16,104.33 -387.16,316.91l0 315.6zm236.52 -315.6c0,-67.82 74,-104.33 147.99,-104.33 76.64,0 154.61,32.6 154.61,104.33l0 315.6c0,66.51 -75.32,100.42 -150.64,100.42 -75.31,0 -151.96,-32.6 -151.96,-100.42l0 -315.6z"/>
 </g>
</svg>
