<?xml version="1.0" encoding="UTF-8"?>
<!DOCTYPE svg PUBLIC "-//W3C//DTD SVG 1.1//EN" "http://www.w3.org/Graphics/SVG/1.1/DTD/svg11.dtd">
<!-- Creator: CorelDRAW 2021 (64 Bit) -->
<svg xmlns="http://www.w3.org/2000/svg" xml:space="preserve" width="113.171mm" height="93.0546mm" version="1.1" style="shape-rendering:geometricPrecision; text-rendering:geometricPrecision; image-rendering:optimizeQuality; fill-rule:evenodd; clip-rule:evenodd"
viewBox="0 0 11317.06 9305.46"
 xmlns:xlink="http://www.w3.org/1999/xlink"
 xmlns:xodm="http://www.corel.com/coreldraw/odm/2003">
 <defs>
  <style type="text/css">
   <![CDATA[
    .fil1 {fill:#5A099D}
    .fil2 {fill:white}
    .fil0 {fill:white;fill-rule:nonzero}
   ]]>
  </style>
 </defs>
 <g id="Camada_x0020_1">
  <metadata id="CorelCorpID_0Corel-Layer"/>
  <g id="_2179547194832">
   <path class="fil0" d="M-5.65 7394.41l0 1888.31 716.1 0c383.73,2.67 743.12,-186.7 743.12,-621.43l0 -634.77c0,-440.08 -359.39,-632.11 -743.12,-632.11l-716.1 0zm486.41 1440.24l0 -994.83 245.9 0c162.14,0 240.5,77.34 240.5,200.03l0 589.43c0,122.69 -75.66,205.37 -240.5,205.37l-245.9 0zm1573.81 -992.16l843.11 0 0 -448.08 -1332.22 0 0 1888.31 1332.22 0 0 -450.74 -843.11 0 0 -282.71 775.55 0 0 -413.4 -775.55 0 0 -293.38zm860.41 1125.51c178.34,226.71 421.55,341.39 651.25,341.39 351.29,0 740.41,-200.03 756.64,-565.42 21.61,-464.08 -318.88,-581.43 -659.37,-642.78 -148.62,-32 -248.6,-85.34 -254,-176.02 8.1,-218.71 351.29,-226.71 551.25,-16.01l316.17 -240.04c-197.26,-237.37 -421.55,-301.38 -653.95,-301.38 -351.3,0 -691.78,194.7 -691.78,565.43 0,360.06 281.04,552.09 589.1,600.09 156.73,21.34 332.37,82.69 326.97,189.37 -13.51,202.7 -435.07,192.03 -626.93,-37.34l-305.35 282.71zm1952.12 -1573.59l-483.71 0 0 1888.31 483.71 0 0 -1888.31zm1530.58 376.06c-132.42,-301.38 -416.15,-402.73 -664.77,-402.73 -378.31,0 -756.63,213.37 -756.63,640.11l0 648.1c0,434.74 378.32,653.44 756.63,653.44 383.73,0 751.24,-218.7 751.24,-653.44l0 -469.41 -770.14 0 0 400.07 305.35 0 0 69.34c0,293.38 -559.37,296.05 -559.37,0l0 -648.1c0,-248.04 426.96,-306.72 532.35,-53.35l405.34 -184.03zm163.22 1512.25l483.71 0 0 -754.79 -62.15 -365.39 13.5 -2.67 167.54 378.73 432.37 744.12 489.11 0 0 -1888.31 -481 0 0 856.14c2.7,0 51.34,325.39 54.04,325.39l-13.51 2.67 -162.13 -378.73 -462.1 -805.47 -459.38 0 0 1888.31zm2168.31 -1440.23l843.11 0 0 -448.08 -1332.22 0 0 1888.31 1332.22 0 0 -450.74 -843.11 0 0 -282.71 775.55 0 0 -413.4 -775.55 0 0 -293.38zm1971.04 1440.23l602.61 0 -521.54 -648.11c232.4,-72.01 375.61,-269.37 375.61,-618.76 -10.8,-442.74 -316.17,-621.44 -710.69,-621.44l-764.75 0 0 1888.31 489.11 0 0 -600.1 86.48 0 443.17 600.1zm-529.65 -1010.83l0 -432.07 283.74 0c305.36,0 305.36,432.07 0,432.07l-283.74 0z"/>
   <path class="fil1" d="M3913.72 3.92c1408.21,0 2642.75,742.81 3333.75,1857.86l0 4123.08c-229.73,370.69 -519.61,700.18 -855.89,974.99l-235.06 0 0 -6073.07 -1222.1 0 -1024.1 2967.91 -1017.27 -2967.91 -1222.1 0 0 6073.07 -235.26 0c-879.66,-718.72 -1441.36,-1811.99 -1441.36,-3036.53 0,-2164.62 1754.78,-3919.4 3919.39,-3919.4zm-1020.67 6955.93l0 -1749.87 -81.92 -1226.62 34.13 -8.57 648.6 2084.38 839.77 0 634.92 -2084.38 40.97 8.57 -75.1 1226.62 -6.83 1749.87 -2034.54 0z"/>
   <path class="fil2" d="M8476.4 3134.15l0 -2247.37 -1228.93 0 0 975c371.17,598.92 585.65,1305.13 585.65,2061.54 0,756.39 -214.48,1462.6 -585.65,2061.54l0 974.99 1228.93 0 0 -2101.57 40.96 -68.61 1235.74 2170.18 1549.82 0 -1904.83 -3139.46 1911.64 -2933.61 -1522.48 0 -1310.85 2247.37z"/>
  </g>
 </g>
</svg>
