<svg width="99" height="138" viewBox="0 0 99 138" fill="none" xmlns="http://www.w3.org/2000/svg">
<path fill-rule="evenodd" clip-rule="evenodd" d="M20.0207 18.4126H35.2212V12.4677H26.5354V6.51442H35.2212V0H20.0207V18.4126ZM41.7173 6.51472C43.751 8.54843 44.8115 9.52164 47.7531 12.4635C46.034 12.4635 41.7173 12.4698 41.7173 12.4692V18.4126H56.919V12.4677L50.847 6.51442H56.919V0H41.7173C41.7173 0 41.7173 3.26965 41.7173 6.51472ZM78.4654 0H63.2628C63.2628 0 63.2628 3.26965 63.2628 6.51472C65.2965 8.54843 66.3576 9.52164 69.2991 12.4635C67.5806 12.4635 63.2628 12.4698 63.2628 12.4692V18.4126H78.4654V12.4677L72.393 6.51442H78.4654V0Z" fill="white"/>
<path fill-rule="evenodd" clip-rule="evenodd" d="M98.4861 27.1633L89.2521 127.187L49.2427 137.961L9.23253 127.187L0 27.1633H98.4861ZM19.7428 59.5541L17.9521 47.3552L79.7298 47.2433L78.8345 59.3302L48.9529 71.9767H77.7153L74.5816 109.692L49.1767 116.743L24.2194 109.469L22.6526 90.7786H34.8515L35.6349 100.291L49.5125 104.097L63.1662 99.9557L64.1735 84.0637H21.6454L20.862 71.9767L50.8554 59.3302L19.7428 59.5541Z" fill="white"/>
</svg>
