<svg width="98" height="138" viewBox="0 0 98 138" fill="none" xmlns="http://www.w3.org/2000/svg">
<path d="M9.0885 0H15.3031V6.13999H20.988V0H27.2028V18.5934H20.9882V12.3672H15.3034V18.5934H9.08877V0H9.0885Z" fill="white"/>
<path d="M35.3754 6.16585H29.9043V0H47.064V6.16585H41.5905V18.5934H35.3756V6.16585H35.3754Z" fill="white"/>
<path d="M49.7872 0H56.2674L60.2535 6.53317L64.2356 0H70.7181V18.5934H64.5291V9.37749L60.2535 15.9885H60.1466L55.868 9.37749V18.5934H49.7872V0Z" fill="white"/>
<path d="M73.8112 0H80.0276V12.4475H88.7672V18.5934H73.8112V0Z" fill="white"/>
<path fill-rule="evenodd" clip-rule="evenodd" d="M0 27.0967L8.88979 126.806L48.782 137.88L88.7843 126.79L97.6835 27.0967H0ZM32.6596 72.2302H77.2255L76.9271 75.514L73.8695 109.775L48.8418 116.711V116.713L48.7855 116.729L23.7354 109.775L22.0221 90.5737H34.2981L35.1687 100.327L48.7882 104.004L48.7995 104.001V104L62.4386 100.319L63.8581 84.459H21.4757L18.1773 47.4785H79.4332L78.3382 59.7076H31.5421L32.6596 72.2302Z" fill="white"/>
</svg>
