<svg width="121" height="121" viewBox="0 0 121 121" fill="none" xmlns="http://www.w3.org/2000/svg">
<path fill-rule="evenodd" clip-rule="evenodd" d="M121 0H0V121H121V0ZM95.9488 77.6608C106.611 81.9855 110.211 86.6208 111.097 92.1417C111.948 96.892 110.89 99.9745 110.729 100.435C106.795 113.892 84.8611 114.329 76.0967 105.438C75.8305 105.137 75.5785 104.857 75.3389 104.59C73.912 103.003 72.9245 101.905 71.979 99.8366L71.9876 99.8317C76.6373 97.1567 76.6401 97.1551 81.1689 94.5342C83.6304 98.3184 85.9077 100.4 90.0024 101.251C95.5579 101.93 101.148 100.021 99.894 94.1202C99.1471 91.3261 95.4427 89.7576 91.123 87.9286C87.9919 86.6028 84.5376 85.1402 81.652 82.9748C74.6818 78.2934 73.0486 66.9182 78.7765 60.4196C80.6858 58.0157 83.941 56.2214 87.3569 55.3588C87.9462 55.2843 88.5383 55.2071 89.1303 55.1299C89.7287 55.0519 90.327 54.9738 90.9225 54.8987C97.7662 54.7607 102.045 56.5665 105.185 60.0745C106.059 60.9601 106.772 61.9149 108.106 63.9852C107.354 64.4646 106.757 64.844 106.238 65.1742C104.242 66.444 103.394 66.9833 99.2499 69.667C98.1342 67.2632 96.2824 65.7564 94.3271 65.1008C91.2906 64.1806 87.4605 65.1813 86.6668 68.3903C86.3908 69.3795 86.4483 70.2996 86.8854 71.9329C87.8815 74.2045 90.7764 75.4361 93.8077 76.7258C94.5215 77.0294 95.2429 77.3364 95.9488 77.6608ZM54.4615 55.6117H65.7794C65.7794 59.084 65.7858 62.5525 65.7922 66.0184C65.8049 72.9425 65.8177 79.8564 65.7794 86.7703C65.7828 87.7091 65.7977 88.6346 65.8124 89.5456C65.8972 94.8067 65.9742 99.583 63.778 103.632C61.9952 107.255 58.5908 109.636 54.6456 110.786C48.584 112.178 42.7871 111.384 38.4739 108.796C35.5869 107.025 33.3326 104.299 31.8028 101.159C33.3365 100.223 34.8674 99.2837 36.3983 98.3445C37.9327 97.4031 39.4671 96.4618 41.0043 95.5233C41.0761 95.554 41.2755 95.904 41.5457 96.3782C41.5789 96.4365 41.6132 96.4967 41.6485 96.5585C42.8217 98.5252 43.8339 99.9169 45.8237 100.895C47.779 101.562 52.0692 101.987 53.7255 98.5483C54.533 97.1536 54.4913 93.2408 54.4414 88.5559C54.4288 87.3683 54.4156 86.131 54.4156 84.8725C54.4156 79.9842 54.4271 75.1132 54.4386 70.2421C54.45 65.3711 54.4615 60.5 54.4615 55.6117Z" fill="white"/>
</svg>
