<svg width="154" height="138" viewBox="0 0 154 138" fill="none" xmlns="http://www.w3.org/2000/svg">
<path fill-rule="evenodd" clip-rule="evenodd" d="M153.011 68.9992C153.011 58.7369 140.322 49.0168 120.86 42.9779C125.355 22.8947 123.35 6.92135 114.559 1.80283C112.529 0.605145 110.163 0.0378216 107.573 0.0378216V7.08525C109.005 7.08525 110.163 7.37521 111.135 7.90471C115.381 10.3631 117.211 19.7429 115.779 31.808C115.431 34.7706 114.87 37.8972 114.185 41.0869C108.071 39.574 101.397 38.4015 94.3866 37.6451C90.1778 31.808 85.8071 26.5003 81.4115 21.8609C91.5724 12.2794 101.111 7.04742 107.598 7.04742V0C99.0187 0 87.7994 6.19013 76.4431 16.9315C65.0869 6.25317 53.8676 0.126072 45.2881 0.126072V7.1735C51.7383 7.1735 61.3139 12.3803 71.4872 21.8861C67.1166 26.5255 62.7583 31.7954 58.6118 37.6451C51.5639 38.4015 44.8896 39.574 38.7757 41.1121C38.0535 37.9603 37.5305 34.8967 37.1569 31.9592C35.6876 19.8942 37.5056 10.5144 41.7144 8.01818C42.6483 7.45085 43.8686 7.19871 45.3006 7.19871V0.163894C42.6856 0.163894 40.3073 0.731217 38.2527 1.9289C29.4865 7.04742 27.519 22.9955 32.0516 43.0158C12.6264 49.0672 0 58.7621 0 68.9992C0 79.2615 12.6886 88.9816 32.1512 95.0205C27.656 115.104 29.6608 131.077 38.4519 136.196C40.4816 137.393 42.8475 137.961 45.4749 137.961C54.0544 137.961 65.2737 131.77 76.6299 121.029C87.9862 131.707 99.2055 137.834 107.785 137.834C110.4 137.834 112.778 137.267 114.833 136.069C123.599 130.951 125.566 115.003 121.034 94.9826C140.384 88.9564 153.011 79.2236 153.011 68.9992ZM90.7256 68.9992C90.7256 61.0314 84.3502 54.5639 76.468 54.5639C68.5984 54.5639 62.2104 61.0188 62.2104 68.9992C62.2104 76.9795 68.5859 83.4344 76.468 83.4344C84.3502 83.4218 90.7256 76.9669 90.7256 68.9992ZM112.405 47.9326C111.247 52.0047 109.815 56.2029 108.196 60.4011C106.913 57.8796 105.581 55.3456 104.112 52.8242C102.68 50.3027 101.148 47.8317 99.6164 45.4363C104.049 46.1045 108.32 46.924 112.405 47.9326ZM98.1222 81.5686C95.694 85.8298 93.1912 89.8767 90.6011 93.6337C85.9565 94.0497 81.2496 94.264 76.5054 94.264C71.7985 94.264 67.0917 94.0371 62.4719 93.6589C59.8819 89.9019 57.3541 85.8928 54.926 81.6568C52.5601 77.5217 50.4059 73.3235 48.4385 69.0874C50.3685 64.8514 52.5601 60.628 54.8886 56.4929C57.3168 52.2316 59.8197 48.1847 62.4097 44.4278C67.0543 44.0117 71.7612 43.7974 76.5054 43.7974C81.2123 43.7974 85.9192 44.0243 90.5389 44.4026C93.1289 48.1595 95.6567 52.1686 98.0848 56.4046C100.451 60.5398 102.605 64.738 104.572 68.974C102.605 73.1974 100.463 77.4208 98.1222 81.5686ZM108.196 77.4586C109.877 81.6946 111.309 85.9181 112.504 90.028C108.42 91.0366 104.112 91.8939 99.6538 92.5494C101.185 90.1163 102.705 87.62 104.149 85.0608C105.568 82.5393 106.913 79.9801 108.196 77.4586ZM76.5677 111.145C73.6663 108.119 70.765 104.741 67.901 101.047C70.7028 101.173 73.5792 101.274 76.4805 101.274C79.4067 101.274 82.3081 101.211 85.1471 101.047C82.333 104.741 79.4316 108.119 76.5677 111.145ZM53.3695 92.5494C48.9366 91.8813 44.6655 91.0618 40.5812 90.0532C41.7393 85.9811 43.1713 81.7829 44.79 77.5847C46.0726 80.1061 47.405 82.6402 48.8743 85.1616C50.3436 87.6957 51.8379 90.1541 53.3695 92.5494ZM76.4058 26.8407C79.3071 29.8665 82.2084 33.2452 85.0724 36.9391C82.2707 36.813 79.3943 36.7122 76.493 36.7122C73.5667 36.7122 70.6654 36.7752 67.8263 36.9391C70.6405 33.2452 73.5418 29.8665 76.4058 26.8407ZM53.3321 45.4363C51.8005 47.8695 50.2814 50.3658 48.8369 52.925C47.405 55.4465 46.0601 57.9805 44.7776 60.5019C43.0965 56.2659 41.6646 52.0425 40.4692 47.9326C44.5659 46.9492 48.8743 46.1045 53.3321 45.4363ZM25.1033 84.9725C14.0584 80.207 6.92334 73.9538 6.92334 68.9992C6.92334 64.0446 14.0708 57.7536 25.1033 53.0259C27.7805 51.8534 30.7192 50.8196 33.7451 49.8363C35.5257 56.0264 37.8667 62.4687 40.768 69.0622C37.904 75.6306 35.588 82.035 33.8447 88.2C30.7566 87.2166 27.8179 86.145 25.1033 84.9725ZM41.8887 130.094C37.6426 127.635 35.8121 118.256 37.2441 106.19C37.5927 103.228 38.1531 100.101 38.8379 96.9115C44.9519 98.4244 51.6262 99.5969 58.6367 100.353C62.8455 106.19 67.2162 111.498 71.6117 116.138C61.4384 125.706 51.9002 130.951 45.4126 130.951C44.0056 130.913 42.8226 130.636 41.8887 130.094ZM115.866 106.039C117.336 118.104 115.518 127.484 111.309 129.98C110.375 130.548 109.155 130.8 107.723 130.8C101.273 130.8 91.6969 125.593 81.5236 116.087C85.8943 111.448 90.2525 106.178 94.399 100.328C101.447 99.5716 108.121 98.3992 114.235 96.8485C114.957 100.038 115.518 103.102 115.866 106.039ZM127.87 84.9725C125.193 86.145 122.254 87.1788 119.228 88.1621C117.448 81.972 115.107 75.5297 112.205 68.9362C115.069 62.3678 117.385 55.9634 119.129 49.7984C122.217 50.7818 125.143 51.8534 127.895 53.0133C138.94 57.7788 146.075 64.032 146.075 68.9866C146.05 73.9538 138.915 80.2322 127.87 84.9725Z" fill="white"/>
</svg>
