<svg width="125" height="75" viewBox="0 0 125 75" fill="none" xmlns="http://www.w3.org/2000/svg">
<g clip-path="url(#clip0_227_96)">
<path fill-rule="evenodd" clip-rule="evenodd" d="M62.5 0C45.8374 0 35.4207 8.33333 31.25 25C37.5027 16.6701 44.793 13.5455 53.1209 15.6263C57.8817 16.8133 61.259 20.262 65.0431 24.079C71.1467 30.3009 78.2674 37.4949 93.75 37.4949C110.413 37.4949 120.829 29.1616 125 12.4949C118.754 20.8316 111.464 23.9562 103.129 21.8686C98.3683 20.6815 94.9911 17.2329 91.2069 13.4159C85.083 7.16332 77.9928 0 62.5 0ZM31.25 37.4949C14.5874 37.4949 4.17074 45.8282 0 62.4949C6.25949 54.165 13.5498 51.0404 21.8709 53.1212C26.6317 54.3082 30.009 57.7569 33.7931 61.5841C39.8967 67.7957 47.0174 75 62.5 75C79.1626 75 89.5793 66.6667 93.75 50C87.5041 58.3299 80.2138 61.4477 71.8791 59.3533C67.1183 58.1662 63.7411 54.7176 59.9569 50.9005C53.8534 44.6787 46.7326 37.4744 31.25 37.4744V37.4949Z" fill="white"/>
</g>
<defs>
<clipPath id="clip0_227_96">
<rect width="125" height="75" fill="white"/>
</clipPath>
</defs>
</svg>
